/* XPM */
static char *_5199105cbae4f9affb55f41e4380433q8HnzBzsWvFt7jVv[] = {
/* columns rows colors chars-per-pixel */
"64 64 16 1 ",
"  c None",
". c black",
"X c #0C0C0B",
"o c #CF4E00",
"O c #F85F04",
"+ c #FAC100",
"@ c #FFE700",
"# c #EFB45D",
"$ c #FAC679",
"% c #0B88F5",
"& c #339DF8",
"* c #888686",
"= c #B7B7B7",
"- c #EF8989",
"; c #F8D198",
": c white",
/* pixels */
"                                                                ",
"                                                                ",
"                                                                ",
"                                                                ",
"                                                                ",
"                                                                ",
"                                                                ",
"                                                                ",
"                                                                ",
"                                                                ",
"                                                                ",
"                                                                ",
"                                 .                              ",
"                            ..  .+.  ..                         ",
"                          . .+..+@@..+. .                       ",
"                          ...++.+@@.++...                       ",
"                          .@.+@@@@@++@.@.                       ",
"                        ...+@+@+@@@@@@@@...                     ",
"                        .++++++@@@@@@++@@@.                     ",
"                         .++++@@@@@+@@++@.                      ",
"                          .+++@.....+@++.                       ",
"                         .+++@.*===:.+@++.                      ",
"                        ..+.+.***===:.+.+..                     ",
"                          ....***===:....                       ",
"                          ....XXX........                       ",
"                         .$+$;.;;;;;.;;+ .                      ",
"                         .$+$;&;;;;;&;;+ .                      ",
"                      ..  .+$;&;;;;;&;;+.                       ",
"                     .%%.  .--;;;;;;;--.                        ",
"                    .%&&%. .;;;;;;;;;;;.                        ",
"                    .%&&%.  ...........                         ",
"                     .%%.  ......=......                        ",
"                      ... .......=.......                       ",
"                     .$.#....oOO.*.OOO....                      ",
"                     .$##....oOO.*.OOO.....                     ",
"                      .......oOO.*.OOO...$#.                    ",
"                            .ooo.*.ooo. .$#.                    ",
"                            .....X.....  ..                     ",
"                            .ooooooooo.                         ",
"                            .*:::.oOOO.                         ",
"                            .oOOO.oOOO.                         ",
"                            ...........                         ",
"                             .$#. .#$.                          ",
"                             .... ....                          ",
"                            .$#.. ..#$.                         ",
"                            ..... .....                         ",
"                                                                ",
"                                                                ",
"                                                                ",
"                                                                ",
"                                                                ",
"                                                                ",
"                                                                ",
"                                                                ",
"                                                                ",
"                                                                ",
"                                                                ",
"                                                                ",
"                                                                ",
"                                                                ",
"                                                                ",
"                                                                ",
"                                                                ",
"                                                                "
};
