/* XPM */
static char *e224d32d79f9489787c5c6ec8ac79ffc5xe4SMJaSBPEh7VK[] = {
/* columns rows colors chars-per-pixel */
"64 64 5 1 ",
"  c None",
". c black",
"X c #484646",
"o c gray51",
"O c #B5B4B4",
/* pixels */
"                                          ..                    ",
"                                       ...OO..                  ",
"                                      .OOOOOOO.                 ",
"                                    ..OOOOOOOOO.                ",
"               ....              ...OOOOOOOOOOOO..              ",
"              .OOOO.          ...OOOOOOOOOOOOOOOOO.             ",
"            ..OOOOOO..      ..OOOOOOOOOOOOOOOOOOOOO..           ",
"          ..OOOOOOOOOO......OOOOOOOOOOOOOOOOOOOOOOOOO.          ",
"         .OOOOOOOOOOOOOOOOOOOOOOOOOOOOOOOOOOOOOOOOOOOO.         ",
"       ..OOOOOOOOOOOOOOOOOOOOOOOOOOOOOOOOO..OOOOOOOOOOO.        ",
"      .OOOOOOOOOOOOOOOOOOOOOOOOOOOOOOOO...XX..OOOOOOOOOO.       ",
"     .OOOOOOOOOOOOOOOOOOOOOOOOOOOOOOOO..oooooo.OOOOOOOOOO.      ",
"    .OOOOOOOOOOOOOOOOOOOOOOOOOOOOOOO..o.ooooooo.OOOOOOOOOO.     ",
"   .OOOOOOOOOOO....OOOOOOOOOOOOOO...ooo.oooooooo..OOOOOOOOO.    ",
"  .OOOOOOOOOOO.OOOO.OOOOOOOOOO...OOOOOO.OOOOOOOOOO.OOOOOOOOO..  ",
" .OOOOOOOOOO..OOOOOO..OOOOOO..OOOOOOOOO.OOOOOOOOOOO..OOOOOOOOO. ",
" .OOOOOOOOO...........................................OOOOOOOOO.",
".OOOOOOOOO.XXXX.XXXXXXXXXXXXXXX.XXXXXXXXXXXXXXX.XXXXXX.OOOOOOOO.",
".OOOOOOO..XXXXX.XXXXXXXXXXXXXXX.XXXXXXXXXXXXXXX.XXXXXXX.OOOOOOO.",
".OOOOO..ooooooo.ooooooooooooooo.ooooooooooooooo.oooooooo.OOOOOO.",
".OOOO.ooooooooo.ooooooooooooooo.ooooooooooooooo.ooooooooo.OOOOO.",
".OO..OOOOOOOOOO.OOOOOOOOOOOOOOO.OOOOOOOOOOOOOOO.OOOOOOOOOO.OOOO.",
".O.OOOOOOOOOOOO.OOOOOOOOOOOOOOO.OOOOOOOOOOOOOOO.OOOOOOOOOOO..OO.",
"................................................................",
".XXXXXXX.XXXXXXXXXXXXXX.XXXXXXXXXXXXXX.XXXXXXXXXXXXXXXX.XXXXXXX.",
".XXXXXXX.XXXXXXXXXXXXXX.XXXXXXXXXXXXXX.XXXXXXXXXXXXXXXX.XXXXXXX.",
".ooooooo.oooooooooooooo.oooooooooooooo.oooooooooooooooo.ooooooo.",
".ooooooo.oooooooooooooo.oooooooooooooo.oooooooooooooooo.ooooooo.",
".ooooooo.oooooooooooooo.oooooooooooooo.oooooooooooooooo.ooooooo.",
".OOOOOOO.OOOOOOOOOOOOOO.OOOOOOOOOOOOOO.OOOOOOOOOOOOOOOO.OOOOOOO.",
".OOOOOOO.OOOOOOOOOOOOOO.OOOOOOOOOOOOOO.OOOOOOOOOOOOOOOO.OOOOOOO.",
"................................................................",
".XXXXXXXXXXXXXX.XXXXXXXXXXXXXXX.XXXXXXXXXXXXXXX.XXXXXXXXXXXXXXX.",
".XXXXXXXXXXXXXX.XXXXXXXXXXXXXXX.XXXXXXXXXXXXXXX.XXXXXXXXXXXXXXX.",
".oooooooooooooo.ooooooooooooooo.ooooooooooooooo.ooooooooooooooo.",
".oooooooooooooo.ooooooooooooooo.ooooooooooooooo.ooooooooooooooo.",
".oooooooooooooo.ooooooooooooooo.ooooooooooooooo.ooooooooooooooo.",
".OOOOOOOOOOOOOO.OOOOOOOOOOOOOOO.OOOOOOOOOOOOOOO.OOOOOOOOOOOOOOO.",
".OOOOOOOOOOOOOO.OOOOOOOOOOOOOOO.OOOOOOOOOOOOOOO.OOOOOOOOOOOOOOO.",
"................................................................",
".XXXXXXX.XXXXXXXXXXXXXX.XXXXXXXXXXXXXX.XXXXXXXXXXXXXXXX.XXXXXXX.",
".XXXXXXX.XXXXXXXXXXXXXX.XXXXXXXXXXXXXX.XXXXXXXXXXXXXXXX.XXXXXXX.",
".XXXXXXX.XXXXXXXXXXXXXX.XXXXXXXXXXXXXX.XXXXXXXXXXXXXXXX.XXXXXXX.",
".ooooooo.oooooooooooooo.oooooooooooooo.oooooooooooooooo.ooooooo.",
".ooooooo.oooooooooooooo.oooooooooooooo.oooooooooooooooo.ooooooo.",
".ooooooo.oooooooooooooo.oooooooooooooo.oooooooooooooooo.ooooooo.",
".OOOOOOO.OOOOOOOOOOOOOO.OOOOOOOOOOOOOO.OOOOOOOOOOOOOOOO.OOOOOOO.",
".OOOOOOO.OOOOOOOOOOOOOO.OOOOOOOOOOOOOO.OOOOOOOOOOOOOOOO.OOOOOOO.",
"................................................................",
".XXXXXXXXXXXXXX.XXXXXXXXXXXXXXX.XXXXXXXXXXXXXXX.XXXXXXXXXXXXXXX.",
".XXXXXXXXXXXXXX.XXXXXXXXXXXXXXX.XXXXXXXXXXXXXXX.XXXXXXXXXXXXXXX.",
".oooooooooooooo.ooooooooooooooo.ooooooooooooooo.ooooooooooooooo.",
".oooooooooooooo.ooooooooooooooo.ooooooooooooooo.ooooooooooooooo.",
".oooooooooooooo.ooooooooooooooo.ooooooooooooooo.ooooooooooooooo.",
".OOOOOOOOOOOOOO.OOOOOOOOOOOOOOO.OOOOOOOOOOOOOOO.OOOOOOOOOOOOOOO.",
".OOOOOOOOOOOOOO.OOOOOOOOOOOOOOO.OOOOOOOOOOOOOOO.OOOOOOOOOOOOOOO.",
"................................................................",
"                                                                ",
"                                                                ",
"                                                                ",
"                                                                ",
"                                                                ",
"                                                                ",
"                                                                "
};
