/* XPM */
static char *_b48a3a249c1419dd5b3a4e5387ba52eGskJ3Jc5T6akdyur[] = {
/* columns rows colors chars-per-pixel */
"64 64 13 1 ",
"  c None",
". c black",
"X c #573801",
"o c #006A01",
"O c #7B7777",
"+ c red",
"@ c #09FE00",
"# c #FFFD00",
"$ c #FFD07C",
"% c #7B5580",
"& c #0A71CA",
"* c #FDF2FF",
"= c #FFF8F8",
/* pixels */
"                                                                ",
"                                                                ",
"                                                                ",
"                                                                ",
"                                                                ",
"                                                                ",
"                                                                ",
"                                                                ",
"                                                                ",
"                                                                ",
"                   ...                                          ",
"               ... ...                                          ",
"               ...  +++                                         ",
"                +++ +%.                                         ",
"                +%.  .+.                                        ",
"                 .+. .+.                                        ",
"                 .+.  .+.                                       ",
"                  .+. .+.                                       ",
"                  .+.  .+.                                      ",
"                   .+. .+.                                      ",
"                   .+.  .+..............                        ",
"                    .+...+.=============....                    ",
"                   ..+.==.+.&&&&&&&&&&&&====...                 ",
"                  .==.+.$.+.XX&XX&&====&&&&&==O.                ",
"                 .O=&.+.X===$$X$$X======X&&&&&&O.               ",
"                .O=&&&.+=====X$XX=%%%%%*=@oX&&&&O.              ",
"                .O&&&$XX==##==X$=%=====%=oXoX&&&=.              ",
"                .=&&$XXX==###==X===%%==%=oX@XX&&&.              ",
"                ..&&XX$XX==##==X==%===%*==X@@X&&..              ",
"                .O..$$$X$=====X$X==%%%==XXooXX..O.              ",
"                .+O=..XXX$===X$XoX=****Xo@X@..=O+.              ",
"                 .++O=.....$$XXX@@Xo@@X.....=O++.               ",
"                 ...++=====............=====++...               ",
"                 .OO..+++++============+++++..OO.               ",
"                 .OOOO.....++++++++++++.....OOOO.               ",
"                  .OOO=====............=====OOO.                ",
"                   .OO======================OO.                 ",
"                   .OOO====================OOO.                 ",
"                    .OO====================OO.                  ",
"                     .OO==================OO.                   ",
"                      ..OO==============OO..                    ",
"                        ..OO==========OO..                      ",
"                         ....OOOOOOOO....                       ",
"                         .&&&........&&&.                       ",
"                         .===&&&&&&&&===.                       ",
"                          ..==========..                        ",
"                            ..........                          ",
"                                                                ",
"                                                                ",
"                                                                ",
"                                                                ",
"                                                                ",
"                                                                ",
"                                                                ",
"                                                                ",
"                                                                ",
"                                                                ",
"                                                                ",
"                                                                ",
"                                                                ",
"                                                                ",
"                                                                ",
"                                                                ",
"                                                                "
};
