/* XPM */
static char *_a720c57d4034e8c84c0f0733cbbb10fLn4Pu6E8PUJAKwv7[] = {
/* columns rows colors chars-per-pixel */
"64 64 18 1 ",
"  c None",
". c black",
"X c #01044C",
"o c #000559",
"O c #000562",
"+ c #00066C",
"@ c #F70505",
"# c #FC0606",
"$ c #F7BC53",
"% c #2B37A8",
"& c #313CA6",
"* c #7C58E6",
"= c #959595",
"- c #EFCB8B",
"; c #A387F5",
": c #C3B2F5",
"> c #FFFDFD",
", c white",
/* pixels */
"                                                                ",
"                                                                ",
"                                                                ",
"                                                                ",
"                                                                ",
"                                                                ",
"                          .++.+++++..                           ",
"                          .+++++++++.                           ",
"                        ....oo.....+..                          ",
"                         .+++O.OOOO.OO.                         ",
"                          .++OOOO...OO.                         ",
"                        ..+++.OO.$.$.O.                         ",
"                         ...+.O.$$--.O.                         ",
"                          ..+.O.$---.O.                         ",
"                         ...+....--..O.                         ",
"                           ..$.,#--#..                          ",
"                          ...$.$----..                          ",
"                           ....$$--. .                          ",
"                             ...$$..                            ",
"                            .=.$...,.                           ",
"                           .=.$$$$.,=..                         ",
"                           .=.-$-.,=,,,.                        ",
"                      ...  .=.--.,=,,,=.                        ",
"                      .@,..=.$--.,=.==,.                        ",
"                      .=@,.=.$-.,===.=,,.                       ",
"                       .=@.=.$$.==....=,.                       ",
"                        .=.=.$.====.:.=,.                       ",
"                         .....=...=.:.==,.                      ",
"                         .=....&&&..:.===.                      ",
"                        .=.;;;........,,=.                      ",
"                        .=.*;;*;*;*..=,==.                      ",
"                       .==.*;*;*;*..=,,=.                       ",
"                       .=.;........,,,==.                       ",
"                      .==.;;.&&&. $.,===.                       ",
"                       ..;;*;&&&&.$..==.                        ",
"                      . .*;*;&&&. $$.==.                        ",
"                      .$.*;*;&&&&. $.==.                        ",
"                      .$.*;*;&&&&....==.                        ",
"                       ..;**;%&&&&&&.=..                        ",
"                        ..;*.%%&&&&&..@,.                       ",
"                         .;*.&&&&&&&&.=@,.                      ",
"                         .;*..&&&&&&&..=@,.                     ",
"                         .*..X...&&&&. .=@,.                    ",
"                         .*.XXX.X....   .=@,.                   ",
"                        .;;.XXX.XXXXX.   .=@,.                  ",
"                        .;;.XXX.XXXXX.    .=@.                  ",
"                         ..XXXX..XXXX.     ...                  ",
"                          .XXXX. .XXXX.                         ",
"                           .XXX. .XXXX.                         ",
"                           .XXX. .XXXX.                         ",
"                            ....  ....                          ",
"                            ...    ...                          ",
"                            ...    ....                         ",
"                            ....    ...                         ",
"                           .-...    .--.                        ",
"                                                                ",
"                                                                ",
"                                                                ",
"                                                                ",
"                                                                ",
"                                                                ",
"                                                                ",
"                                                                ",
"                                                                "
};
