/* XPM */
static char *_003904845bd491edf7bbfeac821ed009ekl74R1N8sLBCOF[] = {
/* columns rows colors chars-per-pixel */
"64 64 3 1 ",
"  c None",
". c black",
"X c #FA0000",
/* pixels */
"                                                                ",
"                                                                ",
"                                                                ",
"                                                                ",
"                                                                ",
"                                                                ",
"                                                                ",
"                                                                ",
"                                                                ",
"                                                                ",
"                             .........                          ",
"                          .......X.......                       ",
"                        ........XXX........                     ",
"                       ........XXXXX........                    ",
"                      ........XXXXXXX........                   ",
"                     ........XXXXXXXXX........                  ",
"                    .........XXXXXXXXX.........                 ",
"                   ..........XXXXXXXXX..........                ",
"                  ..........XXXXXXXXXXX.........                ",
"                 .......XX......XXX......XX......               ",
"                ....XXXXXX.XXXX.....XXXX.XXXXXX..               ",
"                ...XXXXXXX.XX...XXX...XX.XXXXXXX..              ",
"               ....XXXXXXX.X...XXXXX...X.XXXXXXX..              ",
"               ....XXXXXX....XXXXXXXXX....XXXXXX...             ",
"               .....XXXXX..XXXXXXXXXXXXX..XXXXX....             ",
"              ......XXXX..XXXXXXXXXXXXXXX..XXXX....             ",
"              .......XX...XXXXXXXXXXXXXXX...XX......            ",
"              .......X..X.XXXXXXXXXXXXXXX.X..X......            ",
"              .........XX.XXXXXXXXXXXXXXX.XX........            ",
"              ........XXX.XXXXXXXXXXXXXXX.XXX.......            ",
"              .........XX.XXXXXXXXXXXXXXX.XX........            ",
"               ......X..X.XXXXXXXXXXXXXXX.X..X......            ",
"               ......XX...XXXXXXXXXXXXXXX...XX.....             ",
"               .....XXXX..XXXXXXXXXXXXXXX..XXXX....             ",
"               .....XXXXX...XXXXXXXXXXX...XXXXX....             ",
"                ...XXXXXX....XXXXXXXXX....XXXXXX...             ",
"                ...XXXXXXX.X...XXXXX...X.XXXXXXX..              ",
"                 ..XXXXXXX.XXX...X...XXX.XXXXXXX..              ",
"                 .....XXXX.XXXX.....XXXX.XXXX....               ",
"                  ..............XXX..............               ",
"                   .........XXXXXXXXXXX.........                ",
"                    .........XXXXXXXXX.........                 ",
"                     .........XXXXXXX.........                  ",
"                      .........XXXXX.........                   ",
"                       .........XXX.........                    ",
"                         ........X........                      ",
"                           .............                        ",
"                                ...                             ",
"                                                                ",
"                                                                ",
"                                                                ",
"                                                                ",
"                                                                ",
"                                                                ",
"                                                                ",
"                                                                ",
"                                                                ",
"                                                                ",
"                                                                ",
"                                                                ",
"                                                                ",
"                                                                ",
"                                                                ",
"                                                                "
};
