/* XPM */
static char *_a6b5cff1048454bb20454506d68114d04vig6kn6TT3e7JV[] = {
/* columns rows colors chars-per-pixel */
"64 64 8 1 ",
"  c None",
". c #026426",
"X c #4E4D25",
"o c #6A6A38",
"O c #4D524F",
"+ c #00AA3E",
"@ c #00EF58",
"# c #3FEF80",
/* pixels */
"                                                                ",
"                                                                ",
"                                                                ",
"                                                                ",
"                                                                ",
"                                                                ",
"                                                                ",
"        @@@@@@@@@@@@@@@@@@@@@@@@@@@@@@@@@@@@@@@@@@@@@@@@        ",
"        @@@@oo#@oo@#####@@@@@o@ooX@@@X..@@#.#@..#@@@+@@@        ",
"        @@@@o#####@@@o@@@..@@@++@#####@@@o@@oo###.XXX@@X        ",
"        @##o@@#+@@@X@Xo...@++@@+@@@@@o@@o@@@+@ooo#X#oo@X        ",
"        ....@@@+@@#....@@++X@@@+@@o...o.@@@+@@#O@oo#+@@@        ",
"        .@.@@o+@#@#o@@++OOOOo@@+@@.@@@o@@@@+@@#@.@@o+o@@        ",
"        .#..@@+@##oo@#@@@@@@OO+@o@@@@@@@@++@@@+@...@+@@@        ",
"        @#..@@o+o@##o##@@o@#o#+@o@@ooo@@@O@@@+@@.oo@o@+@        ",
"        @@#@@@oo@@@O@@@@#o+oo@##@@@..@@@@@X@+@@@X@@X+@+@        ",
"        @@#+@@@oo#@O#.o.#oo++@@@####@.....X@+@@.##@X@@+@        ",
"        @X.@+@##oo.O.#@@#@@@@+@++++@##@@.@@O@@@@@.@@@++@        ",
"        @@.@@+##.o@@@@#@#@@OX+++@+ooo@@..@oO#@XX#@.@@+@@        ",
"        @X.@@#+@.@@o@@@#@@+@X@o+oo@@.XXX@o@O#@@@#@.@#+@@        ",
"        @X#@@o@+.@@@O@..#@@@@@@@++###oX+@@@#ooo.#Xo@@@o@        ",
"        @#.@@@@.+@@O@.o@++oOOOO..++@@O+##XOOOOO@#@+.@@o@        ",
"        #X.@o@.oo++O@+++XX#..@@@@@@+++O++####+###+##@oo@        ",
"        #@..@@.@@+++######.#@+@@+@o@+++X#..@o#@@+@o@..@@        ",
"        @#@.@.@+++++++@#######++@++@o++#X@++++++@@@@@#@@        ",
"        ##@#X.@++@@+@@o@@@######+@@+@+#++X@@@+o#@O@@@@o@        ",
"        #X@.@@+@@@@++@oo@@@+##o++++#++##.+#@@+@#@+@@+o@@        ",
"        #X@.@#@oo@@+.+@o@@++@@###@+@#+@#.@+@@+X#@O@@+#.@        ",
"        #@@.@@oO@@oooo+oo+OO@...+##++#+#.oO+@+@XXo@@oo.@        ",
"        @#X+@@o#@@@@@.O+@@+OO@@+@##++#+@.+O@X+@#@+@@o@@@        ",
"        @X@+@oo#@@@@@@.++++@@oOO#+++#+@+.X@+@X#.@XX@@#.@        ",
"        @X+@@oX@@X@@@@.+@#++++oo++##@#+@.o@+@X#X@+@@@#@@        ",
"        @##@@o@@O@.X@@@.#@++@+++@@OO+++@#X@@+##X++++@@.@        ",
"        ##o@@@.@O@@X.@###.o++++@@+++O+++..@o@+++@@@.@#@@        ",
"        #oo@.@.@OOoXo.@@@@@@+.o.o#XX+oo@+++++@+.#@@oO#.@        ",
"        #@+@.@.@@#o@@@@+@@o@X@o@#o@@+#++O@#@@+@++ooXO@.@        ",
"        @@##.#.@+#@OO@@+@@@@#X@#@@@X#@@ooX@#@+OO@++X@@.@        ",
"        XX+@.@@.+@@o@@+###+@@@#OO@@XX@@@@++@#+XX@+#+.o@@        ",
"        @@+@.@##+@@@@@##+++@@#@@+o#@X@@@@@@@@##X@++#+++@        ",
"        o@+@...o.@@.@##+@@..O#.@oo+++.@o@..o@+@#@@+@##@@        ",
"        o@+#.@o@.o@@.##+@@@@#@.@o@@@+..o.XX@+@@@#@X+@@.@        ",
"        @##@@@@@@o@@OOo+@@@#@@@#OOO@..o@@@@@@X@..#@@X.#@        ",
"        @@#.@o@@@o#O.@oo@@#@@@@#....X@OOO##@@@..@@#@+@o@        ",
"        @..@@+OOO#@@o.@@..#..o.@@#X##@@@##oo..@@X@@.oo@@        ",
"        .@o@@@o@#@##o##@@#@######X@@@@+o#@@.@@@o@@@@#@@@        ",
"        @o@@#+##@@###@@##@##++@+++++++@@#@.@@@X@+@.@@#..        ",
"        @@@@o@...#@@@o#o@@oo@XX+@@@@@@##@.@@@@@@+@@.#+@@        ",
"        @@@@o.@@@o.###...@#@++@@@@oo###@@@XX@@oooX..@+X@        ",
"      O @@o+o@.@@@##@@@@oo#@@@@@@..@@oo@@Xo@@@o+o@.+++..        ",
"        o@+@.##@.@@@@+@@#@@@@..@@.@oo..oXXo@@+++@@@@#@@@        ",
"        @@+@.@.....oo++@@oX...@..@@.@@@@@@o++@@@@@@@oXX@        ",
"        @@@.@@.@@...o@@+#@@#@#..@+@@@@@X+++@@@..oo+++..@        ",
"        o@o.@@#@++++@@@#@@o.#.++++@oooo@@X@@XoX#..+##.@@        ",
"        @@@@@..#+@@#@@@..@@#@@#@@##@@@@@@##@@@@@@@@..@#@        ",
"                                                                ",
"                                                                ",
"                                                                ",
"                                                                ",
"                                                                ",
"                                                                ",
"                                                                ",
"                                                                ",
"                                                                ",
"                                                                "
};
