/* XPM */
static char *_49bf2f93853424dd10323cfa851bc1fvDuiFdHpTbGIjyVn[] = {
/* columns rows colors chars-per-pixel */
"64 64 3 1 ",
"  c None",
". c black",
"X c red",
/* pixels */
"                                                                ",
"                                                                ",
"                                                                ",
"                                                                ",
"                        .......                                 ",
"                      ..XXXXXXX..                               ",
"                     .XXXXXXXXXXX.                              ",
"                    .XXXXXXXXXXXXX.                             ",
"                    .XXX.......XXX.                             ",
"                   .XXX.XXXXXXX.XXX.                            ",
"                   .XXX.XXXXXXX.XXX.                            ",
"                   .XX.XXXX..XX.XXX.                            ",
"                   .XX.XXX.XXXX.XXX.                            ",
"                   .XX.XXX.XXXX.XXX.                            ",
"                   .XX.XXX.XXXX.XXX.                            ",
"                   .XXX.XXX....XXXX.                            ",
"                    .XX.XXXXXXXXXX.                             ",
"                    .XXX.XXXXXXXXX.                             ",
"                     .XXX..XXXXXX.                              ",
"                      ..XXX......                               ",
"                        .......                                 ",
"                                                                ",
"                                                                ",
"                                                                ",
"                                                                ",
"                                                                ",
"                                                                ",
"                                                                ",
"                                                                ",
"                                                                ",
"                                                                ",
"                                                                ",
"                                                                ",
"                                                                ",
"                                                                ",
"                                                                ",
"                                                                ",
"                                                                ",
"                                                                ",
"                                                                ",
"                                                                ",
"                                                                ",
"                                                                ",
"                                                                ",
"                                                                ",
"                                                                ",
"                                                                ",
"                                                                ",
"                                                                ",
"                                                                ",
"                                                                ",
"                                                                ",
"                                                                ",
"                                                                ",
"                                                                ",
"                                                                ",
"                                                                ",
"                                                                ",
"                                                                ",
"                                                                ",
"                                                                ",
"                                                                ",
"                                                                ",
"                                                                "
};
