/* XPM */
static char *_e64c6f9ecbe4a26f1d6aa00bd4ce1cbB6BscO2xvDU4Nw55[] = {
/* columns rows colors chars-per-pixel */
"64 64 31 1 ",
"  c None",
". c black",
"X c #0C0C0C",
"o c #02053F",
"O c #302E2C",
"+ c #373533",
"@ c #3B3939",
"# c #6C0000",
"$ c #345B38",
"% c #272A5F",
"& c #464646",
"* c #4A4947",
"= c #4E4C4C",
"- c #555352",
"; c #555454",
": c #486A4B",
"> c #646260",
", c #6C6662",
"< c #7B7474",
"1 c #8F0000",
"2 c #823700",
"3 c #972525",
"4 c #9D4200",
"5 c #E07C33",
"6 c #97064F",
"7 c #84807D",
"8 c #848484",
"9 c #AC91A9",
"0 c #BCB4BC",
"q c #F7B483",
"w c white",
/* pixels */
"                                                                ",
"                                                                ",
"                                                                ",
"     =                        ......                            ",
"      = = =                  ..;888;.                           ",
"     =     =                .;;88888;.                          ",
"      = =     =             .8888;88;;.                         ",
"     = =   =               .88;;8;;8;;.                         ",
"      = =   = =            .8888;255;5.     ....                ",
"     = =     =             .;;8;25qqqq.    ......               ",
"      = =   = =            .88;;..5qq5.   ...  ..               ",
"     = =     =             .;;;25,.25..   ...  ..               ",
"      = =   =              .;5;5qw65q6.   ..   .3.              ",
"     = =                   .;255qqqqq5.  ...  .3#.              ",
"      = =                   .;.25qqq25.  ..   .#.               ",
"     = =                    .;..2522q.  ...  .$:.               ",
"      =                      .+.2.5q.#. ..  .$:.                ",
"     = =                    ..++22..## ...  .$.                 ",
"      =   =               ..255++-77-#...  .:$.                 ",
"     = = =               .5q5qq42++++3..  .$$.                  ",
"      =   =              .qqqq55525223O. .::.                   ",
"     = = =              .5qq5qqqqq252#O..:$.                    ",
"      = =               .qq54qqqqq553OO..:.                     ",
"     = = =          .   .q54.qqqqq523+O...                      ",
"      = =           .. .5qq.25qqq553O+O..                       ",
"     =   =          .. .qq5..2255523O+O..                       ",
"      = =           .#..qq2..25515#09+O..                       ",
"     =   =      .   .3#.qq2..55113##39O..                       ",
"        =       ..  .<3.q5. .25113#1030..                       ",
"     = =        ..  .<3.q5. .252#990#39.*.                      ",
"        =       .#. .<<.qqq.##3#33303#9.+.                      ",
"     =      .   .3.  .<.qq5.O#+>0>#3#9@.+.                      ",
"        =   ..  .<#. .<.qq25.#>>>>009@@.+.                      ",
"     = =    ..  .<3.  ..5q2..+>>>>+9@@@.O+.                     ",
"        =   .#. .<3#. .<..5. +>>>>+#@@@.O+.                     ",
"     = =    .3.  .<3.  .<3..+>>>>>1#@@@.O..                     ",
"      = =   .<#. .<3#.  .<3.+>>>>>#.3@**..                      ",
"     = =    .<3.  .<3#.  .<.>>>>>+3.3@**.                       ",
"        =   .<3#. .<33#.  .+>>>>>+3.3@**.                       ",
"     = =     .<3.  .<33#. .+>>>>>+3.#@**.                       ",
"        =    .<3#.  .<33#..>>>>>>+#.#@**.                       ",
"     = =      .<3#.  .<33#.9>>>>>1...#@@.                       ",
"        =     .<33#.  .<33.30>>>>1...3@@.                       ",
"     = =       .<33#.  .<.130>>>>1...3@@.                       ",
"        =       .<33#.  ..319>>>>1...3@93.                      ",
"     = =         .<33#.  .19>>>>+1...3@09.                      ",
"                  .<33#...*>>>>>+#.#.#@@@.                      ",
"     = =           .<33#..0>>>>>+#.#..3@@.                      ",
"                    .<3.0.@>>>>>3.##..@@@.                      ",
"     = =             ..0<.X@@>>>3.##..@@..                      ",
"      =              .3<.<.&&&@@#.....#.                        ",
"     =               .#....%%%....  .90.                        ",
"      =             .3#.  .99.      .90.                        ",
"     =               ..   .09.      .9o%.                       ",
"      =                   .09.      .9oo%.                      ",
"     =                   .%%o.      ..q252.                     ",
"                         .%oo.        .....                     ",
"     =                  .252q.                                  ",
"                        ......                                  ",
"     =                                                          ",
"                                                                ",
"                                                                ",
"                                                                ",
"                                                                "
};
